<?xml version="1.0" encoding="UTF-8"?>
<svg xmlns="http://www.w3.org/2000/svg" width="1200" height="630" viewBox="0 0 1200 630">
  <defs>
    <linearGradient id="bg" x1="0" x2="1" y1="0" y2="1">
      <stop offset="0%" stop-color="#f6fbff"/>
      <stop offset="100%" stop-color="#eef6ff"/>
    </linearGradient>
    <linearGradient id="acc" x1="0" x2="1">
      <stop offset="0%" stop-color="#0ea5e9"/>
      <stop offset="100%" stop-color="#22c55e"/>
    </linearGradient>
    <filter id="s" x="-20%" y="-20%" width="140%" height="140%">
      <feDropShadow dx="0" dy="18" stdDeviation="22" flood-color="#0b2a3f" flood-opacity="0.12"/>
    </filter>
  </defs>
  <rect width="100%" height="100%" fill="url(#bg)"/>
  <g opacity="0.7">
    <circle cx="216.0" cy="157.5" r="126.0" fill="#d8efff"/>
    <circle cx="1020.0" cy="220.5" r="138.6" fill="#dcfce7"/>
  </g>

  <g filter="url(#s)">
    <rect x="72.0" y="113.39999999999999" rx="28" ry="28" width="1056.0" height="403.2" fill="#ffffff"/>
    <rect x="72.0" y="113.39999999999999" rx="28" ry="28" width="1056.0" height="403.2" fill="none" stroke="#e6eef6"/>
  </g>

  <g font-family="system-ui, -apple-system, Segoe UI, Roboto, Arial, sans-serif" fill="#0f172a">
    <text x="144.0" y="277.2" font-size="47.25" font-weight="800">Gebäudereinigung Rada</text>
    <text x="144.0" y="327.6" font-size="25.2" fill="#334155">Dachau – Dachau & Umgebung</text>
  </g>

  <g transform="translate(864.0,214.20000000000002)">
    <rect x="0" y="0" rx="22" ry="22" width="216.0" height="201.6" fill="url(#acc)" opacity="0.95"/>
    <path d="M80 70c-10 26-3 52 16 70s44 26 70 16" fill="none" stroke="#ffffff" stroke-width="10" stroke-linecap="round" opacity="0.95"/>
    <path d="M135 60c-17 8-28 22-31 40" fill="none" stroke="#ffffff" stroke-width="10" stroke-linecap="round" opacity="0.95"/>
    <circle cx="135" cy="150" r="38" fill="none" stroke="#ffffff" stroke-width="10" opacity="0.95"/>
  </g>

  <text x="144.0" y="441.0" font-size="18.9" fill="#64748b">reinigung-rada.de (Platzhalterbild)</text>
</svg>
