<?xml version="1.0" encoding="UTF-8"?>
<svg xmlns="http://www.w3.org/2000/svg" width="512" height="512" viewBox="0 0 512 512">
  <defs>
    <linearGradient id="bg" x1="0" x2="1" y1="0" y2="1">
      <stop offset="0%" stop-color="#f6fbff"/>
      <stop offset="100%" stop-color="#eef6ff"/>
    </linearGradient>
    <linearGradient id="acc" x1="0" x2="1">
      <stop offset="0%" stop-color="#0ea5e9"/>
      <stop offset="100%" stop-color="#22c55e"/>
    </linearGradient>
    <filter id="s" x="-20%" y="-20%" width="140%" height="140%">
      <feDropShadow dx="0" dy="18" stdDeviation="22" flood-color="#0b2a3f" flood-opacity="0.12"/>
    </filter>
  </defs>
  <rect width="100%" height="100%" fill="url(#bg)"/>
  <g opacity="0.7">
    <circle cx="92.16" cy="128.0" r="102.4" fill="#d8efff"/>
    <circle cx="435.2" cy="179.2" r="112.64" fill="#dcfce7"/>
  </g>

  <g filter="url(#s)">
    <rect x="30.72" y="92.16" rx="28" ry="28" width="450.56" height="327.68" fill="#ffffff"/>
    <rect x="30.72" y="92.16" rx="28" ry="28" width="450.56" height="327.68" fill="none" stroke="#e6eef6"/>
  </g>

  <g font-family="system-ui, -apple-system, Segoe UI, Roboto, Arial, sans-serif" fill="#0f172a">
    <text x="61.44" y="225.28" font-size="38.4" font-weight="800">R</text>
    <text x="61.44" y="266.24" font-size="20.48" fill="#334155">Favicon</text>
  </g>

  <g transform="translate(368.64,174.08)">
    <rect x="0" y="0" rx="22" ry="22" width="92.16" height="163.84" fill="url(#acc)" opacity="0.95"/>
    <path d="M80 70c-10 26-3 52 16 70s44 26 70 16" fill="none" stroke="#ffffff" stroke-width="10" stroke-linecap="round" opacity="0.95"/>
    <path d="M135 60c-17 8-28 22-31 40" fill="none" stroke="#ffffff" stroke-width="10" stroke-linecap="round" opacity="0.95"/>
    <circle cx="135" cy="150" r="38" fill="none" stroke="#ffffff" stroke-width="10" opacity="0.95"/>
  </g>

  <text x="61.44" y="358.4" font-size="15.36" fill="#64748b">reinigung-rada.de (Platzhalterbild)</text>
</svg>
