<?xml version="1.0" encoding="UTF-8"?>
<svg xmlns="http://www.w3.org/2000/svg" width="1400" height="800" viewBox="0 0 1400 800">
  <defs>
    <linearGradient id="bg" x1="0" x2="1" y1="0" y2="1">
      <stop offset="0%" stop-color="#f6fbff"/>
      <stop offset="100%" stop-color="#eef6ff"/>
    </linearGradient>
    <linearGradient id="acc" x1="0" x2="1">
      <stop offset="0%" stop-color="#0ea5e9"/>
      <stop offset="100%" stop-color="#22c55e"/>
    </linearGradient>
    <filter id="s" x="-20%" y="-20%" width="140%" height="140%">
      <feDropShadow dx="0" dy="18" stdDeviation="22" flood-color="#0b2a3f" flood-opacity="0.12"/>
    </filter>
  </defs>
  <rect width="100%" height="100%" fill="url(#bg)"/>
  <g opacity="0.7">
    <circle cx="252.0" cy="200.0" r="160.0" fill="#d8efff"/>
    <circle cx="1190.0" cy="280.0" r="176.0" fill="#dcfce7"/>
  </g>

  <g filter="url(#s)">
    <rect x="84.0" y="144.0" rx="28" ry="28" width="1232.0" height="512.0" fill="#ffffff"/>
    <rect x="84.0" y="144.0" rx="28" ry="28" width="1232.0" height="512.0" fill="none" stroke="#e6eef6"/>
  </g>

  <g font-family="system-ui, -apple-system, Segoe UI, Roboto, Arial, sans-serif" fill="#0f172a">
    <text x="168.0" y="352.0" font-size="60.0" font-weight="800">Fassadenreinigung</text>
    <text x="168.0" y="416.0" font-size="32.0" fill="#334155">Platzhalterbild</text>
  </g>

  <g transform="translate(1008.0,272.0)">
    <rect x="0" y="0" rx="22" ry="22" width="252.0" height="256.0" fill="url(#acc)" opacity="0.95"/>
    <path d="M80 70c-10 26-3 52 16 70s44 26 70 16" fill="none" stroke="#ffffff" stroke-width="10" stroke-linecap="round" opacity="0.95"/>
    <path d="M135 60c-17 8-28 22-31 40" fill="none" stroke="#ffffff" stroke-width="10" stroke-linecap="round" opacity="0.95"/>
    <circle cx="135" cy="150" r="38" fill="none" stroke="#ffffff" stroke-width="10" opacity="0.95"/>
  </g>

  <text x="168.0" y="560.0" font-size="24.0" fill="#64748b">reinigung-rada.de (Platzhalterbild)</text>
</svg>
